<mxfile host="drawio-plugin" modified="2021-12-18T02:55:32.982Z" agent="5.0 (Windows NT 6.2; Win64; x64) AppleWebKit/537.36 (KHTML, like Gecko) Chrome/89.0.4389.114 Safari/537.36" etag="1o4HqoFnny9Gy1IfMECM" version="14.7.4" type="embed"><diagram id="tvsljWRDo8vnIA9mEmaz" name="Page-1"><mxGraphModel dx="1365" dy="718" grid="1" gridSize="10" guides="1" tooltips="1" connect="1" arrows="1" fold="1" page="1" pageScale="1" pageWidth="850" pageHeight="1100" math="0" shadow="0"><root><mxCell id="0"/><mxCell id="1" parent="0"/><mxCell id="6" style="edgeStyle=orthogonalEdgeStyle;rounded=0;orthogonalLoop=1;jettySize=auto;html=1;fontSize=20;" parent="1" source="2" target="5" edge="1"><mxGeometry relative="1" as="geometry"/></mxCell><mxCell id="2" value="submit(email, password)" style="rounded=1;whiteSpace=wrap;html=1;" parent="1" vertex="1"><mxGeometry x="370" y="10" width="120" height="60" as="geometry"/></mxCell><mxCell id="3" value="return publicKey" style="rounded=1;whiteSpace=wrap;html=1;" parent="1" vertex="1"><mxGeometry x="370" y="260" width="120" height="60" as="geometry"/></mxCell><mxCell id="4" value="Login" style="text;html=1;strokeColor=none;fillColor=none;align=center;verticalAlign=middle;whiteSpace=wrap;rounded=0;fontSize=20;" parent="1" vertex="1"><mxGeometry x="290" y="10" width="40" height="20" as="geometry"/></mxCell><mxCell id="7" style="edgeStyle=orthogonalEdgeStyle;rounded=0;orthogonalLoop=1;jettySize=auto;html=1;fontSize=20;" parent="1" source="5" target="3" edge="1"><mxGeometry relative="1" as="geometry"/></mxCell><mxCell id="5" value="is_valid" style="rhombus;whiteSpace=wrap;html=1;fontSize=20;" parent="1" vertex="1"><mxGeometry x="360" y="130" width="140" height="70" as="geometry"/></mxCell><mxCell id="8" value="Authorization" style="text;html=1;strokeColor=none;fillColor=none;align=center;verticalAlign=middle;whiteSpace=wrap;rounded=0;fontSize=20;" parent="1" vertex="1"><mxGeometry y="450" width="170" height="20" as="geometry"/></mxCell><mxCell id="9" value="generate_AES_key( user.public_key, user.email )" style="rounded=1;whiteSpace=wrap;html=1;fontSize=20;" parent="1" vertex="1"><mxGeometry x="80" y="500" width="470" height="60" as="geometry"/></mxCell><mxCell id="14" value="encrypted_data" style="edgeStyle=orthogonalEdgeStyle;rounded=0;orthogonalLoop=1;jettySize=auto;html=1;fontSize=20;" parent="1" source="10" target="11" edge="1"><mxGeometry x="-0.1429" y="85" relative="1" as="geometry"><mxPoint as="offset"/></mxGeometry></mxCell><mxCell id="10" value="encrypt_data(data, AES_key, iv_parameter_spec)" style="rounded=1;whiteSpace=wrap;html=1;fontSize=20;" parent="1" vertex="1"><mxGeometry x="80" y="620" width="470" height="50" as="geometry"/></mxCell><mxCell id="15" value="encrypted_request" style="edgeStyle=orthogonalEdgeStyle;rounded=0;orthogonalLoop=1;jettySize=auto;html=1;fontSize=20;" parent="1" source="11" target="12" edge="1"><mxGeometry y="105" relative="1" as="geometry"><mxPoint as="offset"/></mxGeometry></mxCell><mxCell id="11" value="send_request(encrypted_data, user.id, iv_parameter_spec)" style="rounded=1;whiteSpace=wrap;html=1;fontSize=20;" parent="1" vertex="1"><mxGeometry x="50" y="740" width="530" height="60" as="geometry"/></mxCell><mxCell id="17" value="raw_request" style="edgeStyle=orthogonalEdgeStyle;rounded=0;orthogonalLoop=1;jettySize=auto;html=1;fontSize=20;" parent="1" source="12" target="16" edge="1"><mxGeometry y="85" relative="1" as="geometry"><mxPoint as="offset"/></mxGeometry></mxCell><mxCell id="12" value="authorization/decrypt_data(encrypted_data, user.id, iv_parameter_spec)" style="rounded=1;whiteSpace=wrap;html=1;fontSize=20;" parent="1" vertex="1"><mxGeometry x="50" y="880" width="530" height="60" as="geometry"/></mxCell><mxCell id="13" value="AES_key" style="endArrow=classic;html=1;fontSize=20;" parent="1" source="9" target="10" edge="1"><mxGeometry y="45" width="50" height="50" relative="1" as="geometry"><mxPoint x="-10" y="650" as="sourcePoint"/><mxPoint x="40" y="600" as="targetPoint"/><mxPoint as="offset"/></mxGeometry></mxCell><mxCell id="16" value="do_something" style="rounded=1;whiteSpace=wrap;html=1;fontSize=20;" parent="1" vertex="1"><mxGeometry x="50" y="1000" width="530" height="60" as="geometry"/></mxCell><mxCell id="21" value="encrypted_response" style="edgeStyle=orthogonalEdgeStyle;rounded=0;orthogonalLoop=1;jettySize=auto;html=1;fontSize=20;" parent="1" source="19" edge="1"><mxGeometry y="115" relative="1" as="geometry"><mxPoint x="315" y="1280" as="targetPoint"/><mxPoint as="offset"/></mxGeometry></mxCell><mxCell id="19" value="encryp_data(raw_response, iv_parameter_spec)" style="rounded=1;whiteSpace=wrap;html=1;fontSize=20;" parent="1" vertex="1"><mxGeometry x="50" y="1120" width="530" height="60" as="geometry"/></mxCell><mxCell id="20" value="raw_response" style="endArrow=classic;html=1;fontSize=20;" parent="1" source="16" target="19" edge="1"><mxGeometry y="95" width="50" height="50" relative="1" as="geometry"><mxPoint x="300" y="1260" as="sourcePoint"/><mxPoint x="350" y="1210" as="targetPoint"/><mxPoint as="offset"/></mxGeometry></mxCell><mxCell id="22" value="" style="rounded=0;whiteSpace=wrap;html=1;fillColor=none;dashed=1;" vertex="1" parent="1"><mxGeometry y="860" width="760" height="420" as="geometry"/></mxCell><mxCell id="23" value="Server" style="text;html=1;strokeColor=none;fillColor=none;align=center;verticalAlign=middle;whiteSpace=wrap;rounded=0;dashed=1;fontSize=19;" vertex="1" parent="1"><mxGeometry x="640" y="860" width="120" height="50" as="geometry"/></mxCell><mxCell id="24" value="" style="rounded=0;whiteSpace=wrap;html=1;fillColor=none;dashed=1;" vertex="1" parent="1"><mxGeometry y="450" width="760" height="370" as="geometry"/></mxCell><mxCell id="25" value="Client" style="text;html=1;strokeColor=none;fillColor=none;align=center;verticalAlign=middle;whiteSpace=wrap;rounded=0;dashed=1;fontSize=19;" vertex="1" parent="1"><mxGeometry x="680" y="450" width="80" height="40" as="geometry"/></mxCell></root></mxGraphModel></diagram></mxfile>